<?xml version="1.0" standalone="no"?>
<!DOCTYPE svg PUBLIC "-//W3C//DTD SVG 20010904//EN"
 "http://www.w3.org/TR/2001/REC-SVG-20010904/DTD/svg10.dtd">
<svg version="1.0" xmlns="http://www.w3.org/2000/svg"
 width="133.000000pt" height="133.000000pt" viewBox="0 0 133.000000 133.000000"
 preserveAspectRatio="xMidYMid meet">

<g transform="translate(0.000000,133.000000) scale(0.100000,-0.100000)"
fill="#000000" stroke="none">
<path d="M570 1271 c0 -5 -18 -12 -39 -16 -22 -4 -42 -13 -45 -21 -3 -8 -11
-14 -19 -14 -22 0 -94 -82 -119 -135 -20 -43 -23 -65 -23 -166 0 -70 4 -122
11 -130 6 -8 14 -27 18 -44 4 -16 14 -43 21 -60 8 -16 21 -46 30 -65 22 -49
78 -145 142 -241 12 -19 23 -39 23 -45 0 -5 8 -17 18 -26 9 -9 30 -34 47 -57
l29 -41 23 27 c13 16 30 41 39 56 8 16 30 48 47 71 18 24 41 58 52 77 11 19
34 59 52 89 18 30 40 71 48 90 9 19 22 49 30 65 7 17 17 44 21 60 4 17 12 36
18 44 7 8 11 60 11 130 0 102 -3 122 -24 166 -26 54 -97 135 -118 135 -8 0
-16 6 -19 14 -3 8 -23 17 -45 21 -21 4 -39 11 -39 16 0 5 -43 9 -95 9 -52 0
-95 -4 -95 -9z m159 -270 c25 -23 31 -37 31 -70 0 -59 -33 -91 -95 -91 -62 0
-95 32 -95 91 0 53 44 99 95 99 22 0 43 -9 64 -29z"/>
<path d="M183 468 c-6 -7 -16 -35 -23 -63 -8 -27 -19 -59 -26 -70 -7 -11 -15
-35 -19 -53 -4 -18 -13 -45 -21 -60 -8 -15 -14 -34 -14 -43 0 -8 -7 -24 -15
-35 -8 -10 -15 -27 -15 -36 0 -10 -4 -18 -10 -18 -5 0 -10 -9 -10 -20 0 -20 7
-20 635 -20 628 0 635 0 635 20 0 11 -4 20 -10 20 -5 0 -10 8 -10 18 0 9 -7
26 -15 36 -8 11 -15 27 -15 35 0 9 -6 28 -14 43 -8 15 -17 42 -21 60 -4 18
-12 42 -19 53 -7 11 -18 43 -26 70 -7 28 -17 56 -23 63 -6 8 -43 12 -117 12
-104 0 -108 -1 -124 -25 l-16 -25 97 0 98 0 17 -38 c9 -20 29 -73 43 -117 15
-44 31 -85 36 -91 5 -6 10 -26 11 -45 l3 -34 -530 0 -530 0 3 34 c1 19 6 39
11 45 5 6 21 47 36 91 14 44 34 97 43 117 l17 38 98 0 97 0 -16 25 c-16 24
-20 25 -124 25 -74 0 -111 -4 -117 -12z"/>
</g>
</svg>
