<?xml version="1.0" standalone="no"?>
<!DOCTYPE svg PUBLIC "-//W3C//DTD SVG 20010904//EN"
 "http://www.w3.org/TR/2001/REC-SVG-20010904/DTD/svg10.dtd">
<svg version="1.0" xmlns="http://www.w3.org/2000/svg"
 width="133.000000pt" height="133.000000pt" viewBox="0 0 133.000000 133.000000"
 preserveAspectRatio="xMidYMid meet">

<g transform="translate(0.000000,133.000000) scale(0.100000,-0.100000)"
fill="#000000" stroke="none">
<path d="M0 665 l0 -455 665 0 665 0 0 455 0 455 -665 0 -665 0 0 -455z m1210
382 c0 -1 -123 -125 -273 -275 l-272 -272 -275 275 -275 275 548 0 c301 0 547
-1 547 -3z m-810 -382 c0 -12 -330 -344 -330 -332 0 4 0 153 0 332 0 179 0
328 0 332 0 12 330 -320 330 -332z m860 1 c0 -179 0 -329 0 -333 0 -12 -330
320 -330 332 0 11 322 336 327 331 2 -2 4 -150 3 -330z m-705 -146 c54 -55 98
-90 110 -90 12 0 56 35 110 90 49 50 94 90 100 90 6 0 84 -74 175 -165 l165
-165 -550 0 -550 0 165 165 c91 91 169 165 175 165 6 0 51 -40 100 -90z"/>
</g>
</svg>
