<?xml version="1.0" standalone="no"?>
<!DOCTYPE svg PUBLIC "-//W3C//DTD SVG 20010904//EN"
 "http://www.w3.org/TR/2001/REC-SVG-20010904/DTD/svg10.dtd">
<svg version="1.0" xmlns="http://www.w3.org/2000/svg"
 width="133.000000pt" height="133.000000pt" viewBox="0 0 133.000000 133.000000"
 preserveAspectRatio="xMidYMid meet">

<g transform="translate(0.000000,133.000000) scale(0.100000,-0.100000)"
fill="#000000" stroke="none">
<path d="M564 1321 c-256 -41 -468 -238 -540 -501 -28 -101 -24 -273 8 -372
60 -183 183 -330 342 -409 109 -54 120 -50 124 43 l3 65 -53 -4 c-81 -6 -134
25 -175 102 -17 33 -45 72 -62 86 -38 32 -39 49 -3 49 28 0 71 -23 85 -47 27
-44 72 -83 103 -89 43 -8 104 3 104 19 0 7 8 29 19 49 l18 37 -47 6 c-65 9
-159 63 -193 111 -70 99 -76 273 -14 365 18 27 21 41 16 68 -7 34 -5 70 7 124
8 38 46 36 130 -8 64 -34 71 -35 117 -25 61 13 169 13 226 -1 41 -9 50 -7 105
21 34 17 77 33 97 36 l37 6 11 -51 c6 -29 8 -69 5 -91 -5 -31 0 -51 26 -104
31 -63 33 -70 28 -157 -10 -162 -78 -250 -225 -287 l-70 -18 16 -24 c12 -18
17 -59 21 -163 6 -178 6 -177 127 -117 164 81 295 243 349 430 29 103 25 281
-9 385 -90 272 -320 454 -592 469 -50 3 -113 1 -141 -3z m250 -57 c220 -57
401 -241 452 -461 24 -105 16 -276 -19 -373 -52 -145 -163 -274 -297 -345
l-68 -35 -4 118 c-3 64 -6 123 -9 131 -2 9 12 19 41 30 25 9 59 23 75 33 135
74 193 317 113 470 -17 33 -21 56 -19 100 4 80 -22 154 -55 161 -36 7 -101
-10 -153 -39 -42 -23 -48 -24 -126 -14 -57 7 -106 7 -159 0 -75 -11 -77 -11
-139 20 -67 33 -135 42 -160 22 -21 -18 -40 -101 -36 -159 2 -34 -3 -60 -19
-90 -50 -96 -45 -243 12 -356 32 -63 33 -67 13 -60 -40 14 -98 8 -113 -12 -23
-31 -16 -56 25 -94 33 -31 81 -106 81 -127 0 -16 -54 45 -95 106 -69 105 -97
194 -103 330 -8 201 44 336 183 476 86 87 183 144 287 170 75 18 218 17 292
-2z m-371 -944 c25 0 29 -18 7 -30 -29 -16 -68 -2 -95 35 -14 17 -25 35 -25
38 0 3 22 -5 49 -18 27 -14 56 -25 64 -25z m-27 -220 c30 0 34 -3 34 -25 l0
-25 -50 25 c-47 24 -70 45 -34 31 9 -3 31 -6 50 -6z"/>
</g>
</svg>
