<?xml version="1.0" standalone="no"?>
<!DOCTYPE svg PUBLIC "-//W3C//DTD SVG 20010904//EN"
 "http://www.w3.org/TR/2001/REC-SVG-20010904/DTD/svg10.dtd">
<svg version="1.0" xmlns="http://www.w3.org/2000/svg"
 width="133.000000pt" height="133.000000pt" viewBox="0 0 133.000000 133.000000"
 preserveAspectRatio="xMidYMid meet">

<g transform="translate(0.000000,133.000000) scale(0.100000,-0.100000)"
fill="#000000" stroke="none">
<path d="M1005 1061 c-143 -54 -399 -150 -570 -214 -171 -63 -336 -125 -367
-137 -57 -21 -74 -42 -62 -73 4 -10 50 -30 122 -52 65 -20 138 -43 164 -51
l47 -15 62 -187 c34 -103 66 -193 72 -199 20 -26 51 -11 138 69 50 46 95 83
102 82 7 -1 81 -51 166 -113 164 -119 197 -132 225 -88 8 12 62 253 121 535
112 541 113 543 61 541 -11 0 -138 -44 -281 -98z m83 -105 c-2 -8 -129 -128
-283 -267 l-280 -253 -10 -95 c-6 -53 -13 -91 -16 -86 -4 6 -25 73 -48 149
-35 114 -40 141 -29 151 26 25 643 415 656 415 8 0 12 -6 10 -14z"/>
</g>
</svg>
