<?xml version="1.0" standalone="no"?>
<!DOCTYPE svg PUBLIC "-//W3C//DTD SVG 20010904//EN"
 "http://www.w3.org/TR/2001/REC-SVG-20010904/DTD/svg10.dtd">
<svg version="1.0" xmlns="http://www.w3.org/2000/svg"
 width="88.000000pt" height="88.000000pt" viewBox="0 0 88.000000 88.000000"
 preserveAspectRatio="xMidYMid meet">

<g transform="translate(0.000000,88.000000) scale(0.100000,-0.100000)"
fill="#000000" stroke="none">
<path d="M345 846 c-117 -29 -224 -116 -278 -225 -30 -63 -32 -72 -32 -181 0
-109 2 -118 32 -181 59 -119 174 -206 308 -230 178 -33 366 64 448 230 30 63
32 72 32 181 0 109 -2 118 -32 181 -87 177 -288 272 -478 225z m237 -103 c68
-30 139 -101 171 -171 17 -36 22 -66 22 -132 0 -102 -21 -155 -89 -228 -131
-140 -351 -140 -482 0 -68 73 -89 126 -89 228 0 101 20 154 86 225 100 109
244 138 381 78z"/>
<path d="M490 505 l-145 -145 -50 50 c-28 28 -55 50 -61 50 -5 0 -29 -19 -52
-43 l-42 -43 100 -99 100 -100 192 193 193 192 -45 45 -45 45 -145 -145z"/>
</g>
</svg>
